{"title":"How I Spent My Summer Vacation HDTV XViD.AC3-ART3MiS","uid":7256169,"size":1374488463,"categoryP":"video","categoryS":"movies","magnet":"?xt=urn:btih:1c060e4857beb509cda397c04a849a930592a076&amp;dn=How+I+Spent+My+Summer+Vacation+HDTV+XViD.AC3-ART3MiS&amp;tr=udp%3A%2F%2Ftracker.openbittorrent.com%3A80&amp;tr=udp%3A%2F%2Fopen.demonii.com%3A1337&amp;tr=udp%3A%2F%2Ftracker.coppersurfer.tk%3A6969&amp;tr=udp%3A%2F%2Fexodus.desync.com%3A6969","seeders":8,"leechers":0,"uploader":".BONE.","files":4,"time":1336591221,"description":"Complete name : Get the Gringo 2012 DVDRiP.XViD.AC3-ART3MiS.avi\nFormat : AVI\nFormat/Info : Audio Video Interleave\nFile size : 1.28 GiB\nDuration : 1h 35mn\nOverall bit rate : 1 907 Kbps\nWriting application : FairUse Wizard - http://fairusewizard.com\nWriting library : VirtualDub build 32842/release\n\nVideo\nID : 0\nFormat : MPEG-4 Visual\nFormat profile : Advanced Simple@L5\nFormat settings, BVOP : 2\nFormat settings, QPel : No\nFormat settings, GMC : No warppoints\nFormat settings, Matrix : Default (H.263)\nMuxing mode : Packed bitstream\nCodec ID : XVID\nCodec ID/Hint : XviD\nDuration : 1h 35mn\nBit rate : 1 770 Kbps\nWidth : 704 pixels\nHeight : 384 pixels\nDisplay aspect ratio : 16:9\nFrame rate : 23.976 fps\nColor space : YUV\nChroma subsampling : 4:2:0\nBit depth : 8 bits\nScan type : Progressive\nCompression mode : Lossy\nBits/(Pixel*Frame) : 0.273\nStream size : 1.19 GiB (93%)\nWriting library : XviD 1.2.1 (UTC 2008-12-04)\n\nAudio\nID : 1\nFormat : AC-3\nFormat/Info : Audio Coding 3\nMode extension : CM (complete main)\nCodec ID : 2000\nDuration : 1h 35mn\nBit rate mode : Constant\nBit rate : 128 Kbps\nChannel(s) : 2 channels\nChannel positions : Front: L R\nSampling rate : 48.0 KHz\nBit depth : 16 bits\nCompression mode : Lossy\nStream size : 87.9 MiB (7%)\nAlignment : Aligned on interleaves\nInterleave, duration : 42 ms (1.00 video frame)\nInterleave, preload duration : 512 ms","torrent":{"xt":"urn:btih:1c060e4857beb509cda397c04a849a930592a076","amp;dn":"How+I+Spent+My+Summer+Vacation+HDTV+XViD.AC3-ART3MiS","amp;tr":["udp%3A%2F%2Ftracker.openbittorrent.com%3A80","udp%3A%2F%2Fopen.demonii.com%3A1337","udp%3A%2F%2Ftracker.coppersurfer.tk%3A6969","udp%3A%2F%2Fexodus.desync.com%3A6969"],"infoHash":"1c060e4857beb509cda397c04a849a930592a076","infoHashBuffer":{"type":"Buffer","data":[28,6,14,72,87,190,181,9,205,163,151,192,74,132,154,147,5,146,160,118]},"announce":[],"urlList":[]}}